<?xml version="1.0" encoding="UTF-8"?>
<svg width="200" height="200" viewBox="0 0 200 200" xmlns="http://www.w3.org/2000/svg">
    <defs>
        <pattern id="circuit" x="0" y="0" width="200" height="200" patternUnits="userSpaceOnUse">
            <!-- Base Grid -->
            <path d="M50 0 V200" stroke="#3b82f6" stroke-width="1" opacity="0.5"/>
            <path d="M150 0 V200" stroke="#3b82f6" stroke-width="1" opacity="0.5"/>
            <path d="M0 50 H200" stroke="#3b82f6" stroke-width="1" opacity="0.5"/>
            <path d="M0 150 H200" stroke="#3b82f6" stroke-width="1" opacity="0.5"/>
            
            <!-- Connecting Lines -->
            <path d="M50 50 H150" stroke="#3b82f6" stroke-width="1" opacity="0.5"/>
            <path d="M50 150 H150" stroke="#3b82f6" stroke-width="1" opacity="0.5"/>
            <path d="M50 50 V150" stroke="#3b82f6" stroke-width="1" opacity="0.5"/>
            <path d="M150 50 V150" stroke="#3b82f6" stroke-width="1" opacity="0.5"/>
            
            <!-- Additional Connections -->
            <path d="M100 0 V50" stroke="#3b82f6" stroke-width="1" opacity="0.5"/>
            <path d="M100 150 V200" stroke="#3b82f6" stroke-width="1" opacity="0.5"/>
            <path d="M0 100 H50" stroke="#3b82f6" stroke-width="1" opacity="0.5"/>
            <path d="M150 100 H200" stroke="#3b82f6" stroke-width="1" opacity="0.5"/>
            
            <!-- Intersection Nodes -->
            <circle cx="50" cy="50" r="3" fill="#3b82f6" opacity="0.6"/>
            <circle cx="150" cy="50" r="3" fill="#3b82f6" opacity="0.6"/>
            <circle cx="50" cy="150" r="3" fill="#3b82f6" opacity="0.6"/>
            <circle cx="150" cy="150" r="3" fill="#3b82f6" opacity="0.6"/>
            <circle cx="50" cy="100" r="3" fill="#3b82f6" opacity="0.6"/>
            <circle cx="150" cy="100" r="3" fill="#3b82f6" opacity="0.6"/>
            <circle cx="100" cy="50" r="3" fill="#3b82f6" opacity="0.6"/>
            <circle cx="100" cy="150" r="3" fill="#3b82f6" opacity="0.6"/>
            
            <!-- Edge Nodes -->
            <circle cx="50" cy="0" r="2" fill="#3b82f6" opacity="0.6"/>
            <circle cx="150" cy="0" r="2" fill="#3b82f6" opacity="0.6"/>
            <circle cx="50" cy="200" r="2" fill="#3b82f6" opacity="0.6"/>
            <circle cx="150" cy="200" r="2" fill="#3b82f6" opacity="0.6"/>
            <circle cx="0" cy="50" r="2" fill="#3b82f6" opacity="0.6"/>
            <circle cx="200" cy="50" r="2" fill="#3b82f6" opacity="0.6"/>
            <circle cx="0" cy="150" r="2" fill="#3b82f6" opacity="0.6"/>
            <circle cx="200" cy="150" r="2" fill="#3b82f6" opacity="0.6"/>
            <circle cx="100" cy="0" r="2" fill="#3b82f6" opacity="0.6"/>
            <circle cx="100" cy="200" r="2" fill="#3b82f6" opacity="0.6"/>
            <circle cx="0" cy="100" r="2" fill="#3b82f6" opacity="0.6"/>
            <circle cx="200" cy="100" r="2" fill="#3b82f6" opacity="0.6"/>
        </pattern>
    </defs>
    <rect x="0" y="0" width="200" height="200" fill="url(#circuit)"/>
</svg>
